<svg width="14" height="10" viewBox="0 0 14 10" fill="none" xmlns="http://www.w3.org/2000/svg">
<path fill-rule="evenodd" clip-rule="evenodd" d="M0.50928 5.94183L4.14985 9.7008C4.55568 10.1049 5.199 10.0989 5.59776 9.68734C5.99652 9.27576 6.00442 8.60957 5.61555 8.18796L3.60438 6.11135H12.9268C13.5195 6.11135 14 5.61378 14 5C14 4.38622 13.5195 3.88865 12.9268 3.88865H3.60438L5.61555 1.81204C6.00442 1.39043 5.99652 0.724243 5.59776 0.312658C5.199 -0.0989268 4.55568 -0.104908 4.14985 0.299195L0.50928 4.05817C0.192875 4.25899 0 4.61569 0 5C0 5.38431 0.192875 5.74101 0.50928 5.94183Z" fill="white"/>
</svg>
