<svg width="20" height="20" viewBox="0 0 20 20" fill="none" xmlns="http://www.w3.org/2000/svg">
<path fill-rule="evenodd" clip-rule="evenodd" d="M10 0.0103128V2.01031C10.1547 2.01031 10.3088 2.00997 10.4614 2.00963C11.5691 2.00716 12.6011 2.00485 13.25 2.13531C13.6172 2.20953 13.832 2.31891 13.9062 2.38531C13.9128 2.39119 13.919 2.39649 13.9247 2.40144C13.9838 2.45239 14 2.46638 14 2.69781C14 2.70473 14.0002 2.71109 14.0004 2.71708L14.0004 2.71713C14.0016 2.75846 14.0023 2.78244 13.9375 2.85406C13.8633 2.93609 13.6875 3.07281 13.5 3.16656C13.1211 3.35406 12.7188 3.41656 12.7188 3.41656L11.7188 3.63531L11.9375 4.63531L12.1562 5.57281C9.70703 5.89313 7.75781 7.20953 6.375 8.51031L5.53125 7.57281C5.60532 7.54879 5.70094 7.51656 5.7897 7.48664L5.78972 7.48663L5.78974 7.48663C5.87417 7.45817 5.9524 7.4318 6 7.41656C6.80078 7.11578 7 6.90875 7 6.01031H1C1 7.81109 2 8.19781 3 8.19781C3.0745 8.19781 3.17629 8.17832 3.27921 8.15861C3.32199 8.15042 3.36496 8.14219 3.40625 8.13531L5 10.0103C4.58594 10.5298 4.41406 10.7838 4.25 11.0416C4.21265 11.0398 4.1753 11.0331 4.13758 11.0264C4.09246 11.0184 4.04681 11.0103 4 11.0103C1.80078 11.0103 0 12.8111 0 15.0103C0 17.2095 1.80078 19.0103 4 19.0103C6.19922 19.0103 8 17.2095 8 15.0103C8 13.6353 7.28125 12.4166 6.21875 11.6978C7.21875 10.3931 9.5 7.93609 12.5625 7.57281L12.9688 9.41656C11.2031 10.1822 10 11.9361 10 14.0103C10 16.8111 12.1992 19.0103 15 19.0103C17.8008 19.0103 20 16.8111 20 14.0103C20 11.2095 17.8008 9.01031 15 9.01031H14.9375L14.0625 5.07281C14.1227 5.05078 14.1608 5.04035 14.1945 5.03113C14.2504 5.01583 14.2941 5.00388 14.4062 4.94781C14.7422 4.77984 15.0859 4.55328 15.4062 4.19781C15.7266 3.84234 16 3.29156 16 2.69781C16 2.0025 15.7227 1.34625 15.25 0.916563C14.7773 0.486876 14.1953 0.279844 13.625 0.166563C12.7056 -0.0166832 11.7019 -0.00572124 10.7048 0.00516854C10.4691 0.00774268 10.2338 0.0103128 10 0.0103128ZM15.375 11.0416C16.8867 11.2173 18 12.4361 18 14.0103C18 15.7095 16.6992 17.0103 15 17.0103C13.3008 17.0103 12 15.7095 12 14.0103C12 12.897 12.5742 11.9634 13.4375 11.4478L14 14.0103L14.0312 14.2291H14.0625C14.168 14.6666 14.5273 15.0103 15 15.0103C15.5508 15.0103 16 14.5611 16 14.0103C16 13.9575 15.9822 13.9128 15.9643 13.8679C15.9544 13.843 15.9445 13.818 15.9375 13.7916H15.9688L15.375 11.0416ZM4.40625 13.0416C4.27734 13.0142 4.13672 13.0103 4 13.0103C2.89844 13.0103 2 13.9088 2 15.0103C2 16.1119 2.89844 17.0103 4 17.0103C5.10156 17.0103 6 16.1119 6 15.0103C6 14.1275 5.42188 13.3658 4.625 13.1041C4.59376 13.0963 4.56252 13.0845 4.53127 13.0728L4.53125 13.0728C4.51758 13.0689 4.50098 13.0709 4.48438 13.0728C4.46778 13.0748 4.45117 13.0767 4.4375 13.0728L4.40625 13.0416Z" fill="black"/>
</svg>
