<svg width="15" height="21" viewBox="0 0 15 21" fill="none" xmlns="http://www.w3.org/2000/svg">
<path fill-rule="evenodd" clip-rule="evenodd" d="M7.5 0C4.79004 0 2.51587 1.91895 1.99219 4.48242L3.83789 4.86328C4.18579 3.15674 5.67993 1.875 7.5 1.875C9.58008 1.875 11.25 3.54492 11.25 5.625V6.65039C10.144 6.00952 8.86963 5.625 7.5 5.625C3.35815 5.625 0 8.98315 0 13.125C0 17.2668 3.35815 20.625 7.5 20.625C11.6418 20.625 15 17.2668 15 13.125C15 11.2244 14.2896 9.49585 13.125 8.17383V5.625C13.125 2.53052 10.5945 0 7.5 0ZM7.5 7.5C10.6018 7.5 13.125 10.0232 13.125 13.125C13.125 16.2268 10.6018 18.75 7.5 18.75C4.39819 18.75 1.875 16.2268 1.875 13.125C1.875 10.0232 4.39819 7.5 7.5 7.5ZM5.625 13.125C5.625 12.0886 6.46362 11.25 7.5 11.25C8.53638 11.25 9.375 12.0886 9.375 13.125C9.375 14.1614 8.53638 15 7.5 15C6.46362 15 5.625 14.1614 5.625 13.125Z" fill="black"/>
</svg>
